<svg xmlns="http://www.w3.org/2000/svg" viewBox="0 0 800 400">
  <!-- Background -->
  <rect x="0" y="0" width="800" height="450" fill="#f8f9fa" rx="10" ry="10" />
  
  <!-- Title -->
  <text x="400" y="30" font-family="Arial" font-size="20" text-anchor="middle" font-weight="bold">Phased Implementation Approach</text>
  
  <!-- Timeline -->
  <line x1="100" y1="100" x2="700" y2="100" stroke="#333" stroke-width="3" />
  
  <!-- Phase markers -->
  <circle cx="100" cy="100" r="10" fill="#4472c4" />
  <circle cx="300" cy="100" r="10" fill="#4472c4" />
  <circle cx="500" cy="100" r="10" fill="#4472c4" />
  <circle cx="700" cy="100" r="10" fill="#4472c4" />
  
  <!-- Phase labels -->
  <text x="100" y="75" font-family="Arial" font-size="14" text-anchor="middle" fill="#333" font-weight="bold">Start</text>
  <text x="300" y="75" font-family="Arial" font-size="14" text-anchor="middle" fill="#333" font-weight="bold">Phase 1</text>
  <text x="500" y="75" font-family="Arial" font-size="14" text-anchor="middle" fill="#333" font-weight="bold">Phase 2</text>
  <text x="700" y="75" font-family="Arial" font-size="14" text-anchor="middle" fill="#333" font-weight="bold">Phase 3</text>
  
  <!-- Months -->
  <text x="200" y="115" font-family="Arial" font-size="10" text-anchor="middle" fill="#333">Month 1</text>
  <text x="400" y="115" font-family="Arial" font-size="10" text-anchor="middle" fill="#333">Month 2</text>
  <text x="600" y="115" font-family="Arial" font-size="10" text-anchor="middle" fill="#333">Month 5</text>
  
  <!-- Legend -->
  <rect x="250" y="354" width="15" height="15" fill="#4472c4" rx="7.5" ry="7.5" />
  <text x="275" y="365" font-family="Arial" font-size="12" text-anchor="left" fill="#333">Original Features</text>
  
  <rect x="450" y="354" width="15" height="15" fill="#c0504d" rx="7.5" ry="7.5" />
  <text x="475" y="365" font-family="Arial" font-size="12" text-anchor="left" fill="#333">Shop Management Additions</text>
  
  <!-- Phase 1 detail -->
  <g transform="translate(100, 135)">
  <!-- Rectangle container -->
  <rect x="0" y="0" width="180" height="200" fill="#e9ecef" rx="5" ry="5" stroke="#4472c4" stroke-width="2" />
  
  <!-- Title - centered within the rectangle -->
  <text x="90" y="20" font-family="Arial" font-size="14" text-anchor="middle" fill="#333" font-weight="bold">Phase 1: Core System</text>
  
  <!-- List items - positioned inside the rectangle -->
  <circle cx="20" cy="40" r="5" fill="#4472c4" />
  <text x="30" y="43" font-family="Arial" font-size="10" text-anchor="left" fill="#333">Staff Management</text>
  
  <circle cx="20" cy="60" r="5" fill="#4472c4" />
  <text x="30" y="63" font-family="Arial" font-size="10" text-anchor="left" fill="#333">Customer Management</text>
  
  <circle cx="20" cy="80" r="5" fill="#4472c4" />
  <text x="30" y="83" font-family="Arial" font-size="10" text-anchor="left" fill="#333">Basic Order Processing</text>
  
  <circle cx="20" cy="100" r="5" fill="#4472c4" />
  <text x="30" y="103" font-family="Arial" font-size="10" text-anchor="left" fill="#333">Simple Inventory Tracking</text>
  
  <!-- NEW: Shop Management Items -->
  <circle cx="20" cy="120" r="5" fill="#c0504d" />
  <text x="30" y="123" font-family="Arial" font-size="10" text-anchor="left" fill="#333">Initial Product Catalog</text>
  
  <circle cx="20" cy="140" r="5" fill="#c0504d" />
  <text x="30" y="143" font-family="Arial" font-size="10" text-anchor="left" fill="#333">Basic POS Functionality</text>
</g>
  <!-- Phase 2 detail -->
  <g transform="translate(300, 135)">
  <!-- Rectangle container -->
  <rect x="0" y="0" width="200" height="200" fill="#e9ecef" rx="5" ry="5" stroke="#4472c4" stroke-width="2" />
  
  <!-- Title - centered within the rectangle -->
  <text x="100" y="20" font-family="Arial" font-size="14" text-anchor="middle" fill="#333" font-weight="bold">Phase 2: Enhanced Features</text>
  
  <!-- List items - positioned inside the rectangle -->
  <circle cx="20" cy="40" r="5" fill="#4472c4" />
  <text x="35" y="43" font-family="Arial" font-size="10" text-anchor="left" fill="#333">Order Tracking Portal</text>
  
  <circle cx="20" cy="60" r="5" fill="#4472c4" />
  <text x="35" y="63" font-family="Arial" font-size="10" text-anchor="left" fill="#333">Advanced Inventory</text>
  
  <circle cx="20" cy="80" r="5" fill="#4472c4" />
  <text x="35" y="83" font-family="Arial" font-size="10" text-anchor="left" fill="#333">Multi-location Support</text>
  
  <circle cx="20" cy="100" r="5" fill="#4472c4" />
  <text x="35" y="103" font-family="Arial" font-size="10" text-anchor="left" fill="#333">Basic Reporting</text>
  
  <!-- NEW: Shop Management Items -->
  <circle cx="20" cy="120" r="5" fill="#c0504d" />
  <text x="35" y="123" font-family="Arial" font-size="10" text-anchor="left" fill="#333">Complete Shop Inventory</text>
  
  <circle cx="20" cy="140" r="5" fill="#c0504d" />
  <text x="35" y="143" font-family="Arial" font-size="10" text-anchor="left" fill="#333">Full POS System</text>
  
  <circle cx="20" cy="160" r="5" fill="#c0504d" />
  <text x="35" y="163" font-family="Arial" font-size="10" text-anchor="left" fill="#333">Tailoring-Shop Integration</text>
</g>
  
  <!-- Phase 3 detail -->
  <g transform="translate(520, 135)">
  <!-- Rectangle container -->
  <rect x="0" y="0" width="265" height="200" fill="#e9ecef" rx="5" ry="5" stroke="#4472c4" stroke-width="2" />
  
  <!-- Title - centered within the rectangle -->
  <text x="132" y="20" font-family="Arial" font-size="14" text-anchor="middle" fill="#333" font-weight="bold">Phase 3: Advanced Capabilities</text>
  
  <!-- List items - positioned inside the rectangle -->
  <circle cx="20" cy="40" r="5" fill="#4472c4" />
  <text x="35" y="43" font-family="Arial" font-size="10" text-anchor="left" fill="#333">Supplier Management</text>
  
  <circle cx="20" cy="60" r="5" fill="#4472c4" />
  <text x="35" y="63" font-family="Arial" font-size="10" text-anchor="left" fill="#333">Tender/RFQ System</text>
  
  <circle cx="20" cy="80" r="5" fill="#4472c4" />
  <text x="35" y="83" font-family="Arial" font-size="10" text-anchor="left" fill="#333">Accounting &amp; Ledger</text>
  
  <circle cx="20" cy="100" r="5" fill="#4472c4" />
  <text x="35" y="103" font-family="Arial" font-size="10" text-anchor="left" fill="#333">Advanced Analytics &amp; API</text>
  
  <!-- NEW: Shop Management Items -->
  <circle cx="20" cy="120" r="5" fill="#c0504d" />
  <text x="35" y="123" font-family="Arial" font-size="10" text-anchor="left" fill="#333">Sales Reporting &amp; Analytics</text>
  
  <circle cx="20" cy="140" r="5" fill="#c0504d" />
  <text x="35" y="143" font-family="Arial" font-size="10" text-anchor="left" fill="#333">Promo &amp; Discount Management</text>
  
  <circle cx="20" cy="160" r="5" fill="#c0504d" />
  <text x="35" y="163" font-family="Arial" font-size="10" text-anchor="left" fill="#333">Customer Loyalty Program</text>
  
  <circle cx="20" cy="180" r="5" fill="#c0504d" />
  <text x="35" y="183" font-family="Arial" font-size="10" text-anchor="left" fill="#333">Multi-location Shop Management</text>
</g>
</svg>