<svg xmlns="http://www.w3.org/2000/svg" viewBox="0 0 800 500">
  <!-- Background -->
  <rect width="800" height="500" fill="#ecf0f1" rx="10" ry="10"/>
  
  <!-- Phone Mockup 1 - Customer View -->
  <rect x="100" y="50" width="250" height="400" rx="20" ry="20" fill="#2c3e50"/>
  <rect x="110" y="60" width="230" height="380" rx="10" ry="10" fill="white"/>
  
  <!-- Phone Status Bar -->
  <rect x="110" y="60" width="230" height="30" rx="10" ry="10" fill="#f5f5f5"/>
  <circle cx="125" cy="75" r="5" fill="#e74c3c"/>
  <rect x="140" y="72" width="40" height="6" rx="3" ry="3" fill="#bdc3c7"/>
  <rect x="285" y="72" width="40" height="6" rx="3" ry="3" fill="#bdc3c7" transform="rotate(90 285 72)"/>
  
  <!-- App Navigation Bar -->
  <rect x="110" y="90" width="230" height="50" fill="#2c3e50"/>
  <text x="140" y="120" font-family="Arial" font-size="16" fill="white">Find a Tailor in Nairobi</text>
  <circle cx="120" cy="115" r="8" fill="white"/>
  <polyline points="118,115 120,117 122,113" stroke="#2c3e50" stroke-width="1.5" fill="none"/>
  
  <!-- Map View of Nairobi -->
  <rect x="110" y="140" width="230" height="200" fill="#3498db" opacity="0.2"/>
  
  <!-- Map Pins for Tailors in Nairobi neighborhoods -->
  <circle cx="200" cy="200" r="8" fill="#e67e22"/>
  <rect x="196" y="196" width="8" height="8" fill="white" transform="rotate(45 200 200)"/>
  <text x="210" y="190" font-family="Arial" font-size="8" fill="#333">Westlands</text>
  
  <circle cx="250" cy="220" r="8" fill="#e67e22"/>
  <rect x="246" y="216" width="8" height="8" fill="white" transform="rotate(45 250 220)"/>
  <text x="260" y="210" font-family="Arial" font-size="8" fill="#333">Kilimani</text>
  
  <circle cx="180" cy="260" r="8" fill="#e67e22"/>
  <rect x="176" y="256" width="8" height="8" fill="white" transform="rotate(45 180 260)"/>
  <text x="190" y="250" font-family="Arial" font-size="8" fill="#333">CBD</text>
  
  <!-- Profile Card -->
  <rect x="110" y="340" width="230" height="100" rx="5" ry="5" fill="white" stroke="#ddd" stroke-width="1"/>
  <circle cx="140" cy="370" r="20" fill="#bdc3c7"/>
  <text x="170" y="365" font-family="Arial" font-size="12" font-weight="bold" fill="#2c3e50">Otieno's Premium Tailors</text>
  <text x="170" y="380" font-family="Arial" font-size="10" fill="#7f8c8d">★★★★☆ (4.2) · 0.5 km away</text>
  <text x="170" y="395" font-family="Arial" font-size="10" fill="#7f8c8d">Specializes in suits &amp; kitenge</text>
  <!-- Fixed Contact Button - moved to avoid overlap -->
  <rect x="170" y="400" width="70" height="25" rx="12.5" ry="12.5" fill="#e67e22"/>
  <text x="188" y="416" font-family="Arial" font-size="10" fill="white">Contact</text>
  
  <!-- Phone Mockup 2 - Tailor View -->
  <rect x="450" y="50" width="250" height="400" rx="20" ry="20" fill="#2c3e50"/>
  <rect x="460" y="60" width="230" height="380" rx="10" ry="10" fill="white"/>
  
  <!-- Phone Status Bar -->
  <rect x="460" y="60" width="230" height="30" rx="10" ry="10" fill="#f5f5f5"/>
  <circle cx="475" cy="75" r="5" fill="#e74c3c"/>
  <rect x="490" y="72" width="40" height="6" rx="3" ry="3" fill="#bdc3c7"/>
  <rect x="635" y="72" width="40" height="6" rx="3" ry="3" fill="#bdc3c7" transform="rotate(90 635 72)"/>
  
  <!-- App Navigation Bar -->
  <rect x="460" y="90" width="230" height="50" fill="#2c3e50"/>
  <text x="500" y="120" font-family="Arial" font-size="16" fill="white">Business Dashboard</text>
  <circle cx="480" cy="115" r="8" fill="white"/>
  <rect x="476" y="111" width="8" height="8" fill="#2c3e50" stroke="white" stroke-width="1.5"/>
  
  <!-- Dashboard Stats -->
  <rect x="470" y="150" width="100" height="80" rx="5" ry="5" fill="#3498db" opacity="0.2"/>
  <text x="520" y="180" font-family="Arial" font-size="22" fill="#3498db" text-anchor="middle">12</text>
  <text x="520" y="200" font-family="Arial" font-size="12" fill="#7f8c8d" text-anchor="middle">Orders</text>
  
  <!-- Fixed Revenue Box - made text smaller and centered better -->
  <rect x="580" y="150" width="100" height="80" rx="5" ry="5" fill="#e67e22" opacity="0.2"/>
  <text x="630" y="180" font-family="Arial" font-size="18" fill="#e67e22" text-anchor="middle">KES 15,500</text>
  <text x="630" y="200" font-family="Arial" font-size="12" fill="#7f8c8d" text-anchor="middle">Revenue</text>
  
  <!-- Orders List -->
  <rect x="470" y="240" width="210" height="40" rx="5" ry="5" fill="white" stroke="#ddd" stroke-width="1"/>
  <circle cx="490" cy="260" r="10" fill="#3498db" opacity="0.3"/>
  <text x="490" y="264" font-family="Arial" font-size="12" fill="#3498db" text-anchor="middle">1</text>
  <text x="520" y="255" font-family="Arial" font-size="10" font-weight="bold" fill="#2c3e50">Wanjiku Kamau</text>
  <text x="520" y="270" font-family="Arial" font-size="10" fill="#7f8c8d">Kitenge Dress</text>
  <rect x="650" y="250" width="20" height="20" rx="10" ry="10" fill="#27ae60"/>
  <text x="660" y="264" font-family="Arial" font-size="12" fill="white" text-anchor="middle">✓</text>
  
  <rect x="470" y="290" width="210" height="40" rx="5" ry="5" fill="white" stroke="#ddd" stroke-width="1"/>
  <circle cx="490" cy="310" r="10" fill="#e67e22" opacity="0.3"/>
  <text x="490" y="314" font-family="Arial" font-size="12" fill="#e67e22" text-anchor="middle">2</text>
  <text x="520" y="305" font-family="Arial" font-size="10" font-weight="bold" fill="#2c3e50">Akinyi Odhiambo</text>
  <text x="520" y="320" font-family="Arial" font-size="10" fill="#7f8c8d">Wedding Attire</text>
  <rect x="650" y="300" width="20" height="20" rx="10" ry="10" fill="#f1c40f"/>
  <text x="660" y="314" font-family="Arial" font-size="12" fill="white" text-anchor="middle">⋯</text>
  
  <rect x="470" y="340" width="210" height="40" rx="5" ry="5" fill="white" stroke="#ddd" stroke-width="1"/>
  <circle cx="490" cy="360" r="10" fill="#e74c3c" opacity="0.3"/>
  <text x="490" y="364" font-family="Arial" font-size="12" fill="#e74c3c" text-anchor="middle">3</text>
  <text x="520" y="355" font-family="Arial" font-size="10" font-weight="bold" fill="#2c3e50">Mwangi Kariuki</text>
  <text x="520" y="370" font-family="Arial" font-size="10" fill="#7f8c8d">Suit Alteration</text>
  <rect x="650" y="350" width="20" height="20" rx="10" ry="10" fill="#bdc3c7"/>
  <text x="660" y="364" font-family="Arial" font-size="12" fill="white" text-anchor="middle">⋯</text>
  
  <!-- Connecting Line Between Phones -->
  <path d="M350 250 C 400 200, 400 300, 450 250" stroke="#e67e22" stroke-width="3" stroke-dasharray="10,5" fill="none"/>
  <circle cx="350" cy="250" r="8" fill="#e67e22"/>
  <circle cx="450" cy="250" r="8" fill="#e67e22"/>
  
  <!-- Labels -->
  <text x="225" y="30" font-family="Arial" font-size="16" font-weight="bold" fill="#2c3e50" text-anchor="middle">Customer View</text>
  <text x="575" y="30" font-family="Arial" font-size="16" font-weight="bold" fill="#2c3e50" text-anchor="middle">Tailor View</text>
  
  <!-- Washoni Logo -->
  <rect x="350" y="430" width="100" height="40" rx="5" ry="5" fill="#2c3e50"/>
  <text x="400" y="458" font-family="Arial" font-size="16" font-weight="bold" fill="white" text-anchor="middle">Wash<tspan fill="#e67e22">oni</tspan></text>
  
  
</svg>